# xmcd CD database file
#
# Track frame offsets:
#	150
#	12857
#	38949
#	63019
#	79668
#	95800
#	116982
#	130174
#	145535
#	163894
#	175916
#	186979
#	209713
#	228220
#	242964
#
# Disc length: 3433 seconds
#
# Revision: 0
# Processed by: cddbd v1.5.2PL0 Copyright (c) Steve Scherf et al.
# Submitted via: CDex 1.51
#
DISCID=d40d670f
DTITLE=Big Bo - Traveling Riverside
DYEAR=2016
DGENRE=Blues
TTITLE0=Pony Blues
TTITLE1=Devil Got My Woman
TTITLE2=Stranger Blues
TTITLE3=Country Blues
TTITLE4=Keep Your Lamp Trimmed And Burning
TTITLE5=Catfish Blues
TTITLE6=Come On Around To My House
TTITLE7=Traveling Riverside Blues
TTITLE8=Living With The Blues
TTITLE9=Me And The Devil
TTITLE10=Pick A Bale Of Cotton
TTITLE11=Broke Down Engine
TTITLE12=Fixin' To Die
TTITLE13=You Gotta Move
TTITLE14=Grinnin' In Your Face
EXTD=YEAR: 2016
EXTT0=
EXTT1=
EXTT2=
EXTT3=
EXTT4=
EXTT5=
EXTT6=
EXTT7=
EXTT8=
EXTT9=
EXTT10=
EXTT11=
EXTT12=
EXTT13=
EXTT14=
PLAYORDER=
